<mxfile host="app.diagrams.net" agent="Mozilla/5.0 (Windows NT 10.0; Win64; x64) AppleWebKit/537.36 (KHTML, like Gecko) Chrome/122.0.6261.95 Safari/537.36" version="26.1.0">
  <diagram id="azeZTBEGUDVFF7n7ARS4" name="第 1 页">
    <mxGraphModel dx="1434" dy="1964" grid="1" gridSize="10" guides="1" tooltips="1" connect="1" arrows="1" fold="1" page="1" pageScale="1" pageWidth="827" pageHeight="1169" math="0" shadow="0">
      <root>
        <mxCell id="0" />
        <mxCell id="1" parent="0" />
        <mxCell id="oYvmTv_5I0Rg5s-J_Htf-3" style="edgeStyle=orthogonalEdgeStyle;rounded=0;orthogonalLoop=1;jettySize=auto;html=1;exitX=1;exitY=0.3333333333333333;exitDx=0;exitDy=0;exitPerimeter=0;entryX=0;entryY=0.5;entryDx=0;entryDy=0;" edge="1" parent="1" source="oYvmTv_5I0Rg5s-J_Htf-1" target="oYvmTv_5I0Rg5s-J_Htf-2">
          <mxGeometry relative="1" as="geometry" />
        </mxCell>
        <mxCell id="oYvmTv_5I0Rg5s-J_Htf-4" value="用户名" style="edgeLabel;html=1;align=center;verticalAlign=middle;resizable=0;points=[];" vertex="1" connectable="0" parent="oYvmTv_5I0Rg5s-J_Htf-3">
          <mxGeometry x="0.1529" y="2" relative="1" as="geometry">
            <mxPoint as="offset" />
          </mxGeometry>
        </mxCell>
        <mxCell id="oYvmTv_5I0Rg5s-J_Htf-1" value="销售人员" style="shape=umlActor;verticalLabelPosition=bottom;verticalAlign=top;html=1;outlineConnect=0;" vertex="1" parent="1">
          <mxGeometry x="70" y="100" width="30" height="60" as="geometry" />
        </mxCell>
        <mxCell id="oYvmTv_5I0Rg5s-J_Htf-2" value="保保小二" style="swimlane;whiteSpace=wrap;html=1;startSize=23;fillColor=#dae8fc;strokeColor=#6c8ebf;" vertex="1" parent="1">
          <mxGeometry x="270" y="60" width="80" height="120" as="geometry" />
        </mxCell>
        <mxCell id="oYvmTv_5I0Rg5s-J_Htf-62" style="edgeStyle=orthogonalEdgeStyle;rounded=0;orthogonalLoop=1;jettySize=auto;html=1;exitX=0;exitY=0;exitDx=140;exitDy=30;exitPerimeter=0;strokeColor=#009900;strokeWidth=2;" edge="1" parent="1" source="oYvmTv_5I0Rg5s-J_Htf-5" target="oYvmTv_5I0Rg5s-J_Htf-61">
          <mxGeometry relative="1" as="geometry" />
        </mxCell>
        <mxCell id="oYvmTv_5I0Rg5s-J_Htf-63" value="2、创建新订单" style="edgeLabel;html=1;align=center;verticalAlign=middle;resizable=0;points=[];" vertex="1" connectable="0" parent="oYvmTv_5I0Rg5s-J_Htf-62">
          <mxGeometry x="-0.2324" y="-2" relative="1" as="geometry">
            <mxPoint as="offset" />
          </mxGeometry>
        </mxCell>
        <mxCell id="oYvmTv_5I0Rg5s-J_Htf-5" value="报新单" style="shape=note;whiteSpace=wrap;html=1;backgroundOutline=1;darkOpacity=0.05;fillColor=#dae8fc;strokeColor=#6c8ebf;" vertex="1" parent="1">
          <mxGeometry x="540" y="-30" width="140" height="60" as="geometry" />
        </mxCell>
        <mxCell id="oYvmTv_5I0Rg5s-J_Htf-6" value="历史记录" style="shape=note;whiteSpace=wrap;html=1;backgroundOutline=1;darkOpacity=0.05;fillColor=#dae8fc;strokeColor=#6c8ebf;" vertex="1" parent="1">
          <mxGeometry x="540" y="200" width="140" height="60" as="geometry" />
        </mxCell>
        <mxCell id="oYvmTv_5I0Rg5s-J_Htf-7" style="edgeStyle=orthogonalEdgeStyle;rounded=0;orthogonalLoop=1;jettySize=auto;html=1;entryX=0;entryY=0.5;entryDx=0;entryDy=0;entryPerimeter=0;dashed=1;dashPattern=8 8;strokeColor=#3399FF;" edge="1" parent="1" target="oYvmTv_5I0Rg5s-J_Htf-5">
          <mxGeometry relative="1" as="geometry">
            <mxPoint x="350" y="120" as="sourcePoint" />
          </mxGeometry>
        </mxCell>
        <mxCell id="oYvmTv_5I0Rg5s-J_Htf-8" style="edgeStyle=orthogonalEdgeStyle;rounded=0;orthogonalLoop=1;jettySize=auto;html=1;entryX=0;entryY=0.5;entryDx=0;entryDy=0;entryPerimeter=0;dashed=1;dashPattern=8 8;strokeColor=#3399FF;" edge="1" parent="1" source="oYvmTv_5I0Rg5s-J_Htf-2" target="oYvmTv_5I0Rg5s-J_Htf-6">
          <mxGeometry relative="1" as="geometry" />
        </mxCell>
        <mxCell id="oYvmTv_5I0Rg5s-J_Htf-9" value="战败单" style="shape=note;whiteSpace=wrap;html=1;backgroundOutline=1;darkOpacity=0.05;fillColor=#dae8fc;strokeColor=#6c8ebf;" vertex="1" parent="1">
          <mxGeometry x="540" y="90" width="140" height="60" as="geometry" />
        </mxCell>
        <mxCell id="oYvmTv_5I0Rg5s-J_Htf-10" style="edgeStyle=orthogonalEdgeStyle;rounded=0;orthogonalLoop=1;jettySize=auto;html=1;entryX=0;entryY=0.5;entryDx=0;entryDy=0;entryPerimeter=0;strokeColor=#3399FF;dashed=1;dashPattern=8 8;" edge="1" parent="1" source="oYvmTv_5I0Rg5s-J_Htf-2" target="oYvmTv_5I0Rg5s-J_Htf-9">
          <mxGeometry relative="1" as="geometry" />
        </mxCell>
        <mxCell id="oYvmTv_5I0Rg5s-J_Htf-16" value="用户名" style="edgeLabel;html=1;align=center;verticalAlign=middle;resizable=0;points=[];" vertex="1" connectable="0" parent="1">
          <mxGeometry x="198" y="448" as="geometry" />
        </mxCell>
        <mxCell id="oYvmTv_5I0Rg5s-J_Htf-17" value="保险公司" style="shape=umlActor;verticalLabelPosition=bottom;verticalAlign=top;html=1;outlineConnect=0;" vertex="1" parent="1">
          <mxGeometry x="70" y="430" width="30" height="60" as="geometry" />
        </mxCell>
        <mxCell id="oYvmTv_5I0Rg5s-J_Htf-18" value="保保小二" style="swimlane;whiteSpace=wrap;html=1;startSize=23;fillColor=#ffe6cc;strokeColor=#d79b00;" vertex="1" parent="1">
          <mxGeometry x="270" y="400" width="80" height="120" as="geometry" />
        </mxCell>
        <mxCell id="oYvmTv_5I0Rg5s-J_Htf-19" style="edgeStyle=orthogonalEdgeStyle;rounded=0;orthogonalLoop=1;jettySize=auto;html=1;exitX=1;exitY=0.3333333333333333;exitDx=0;exitDy=0;exitPerimeter=0;entryX=0;entryY=0.5;entryDx=0;entryDy=0;" edge="1" parent="1">
          <mxGeometry relative="1" as="geometry">
            <mxPoint x="100" y="461" as="sourcePoint" />
            <mxPoint x="270" y="461" as="targetPoint" />
          </mxGeometry>
        </mxCell>
        <mxCell id="oYvmTv_5I0Rg5s-J_Htf-36" style="edgeStyle=orthogonalEdgeStyle;rounded=0;orthogonalLoop=1;jettySize=auto;html=1;exitX=0.5;exitY=1;exitDx=0;exitDy=0;exitPerimeter=0;entryX=0.5;entryY=0;entryDx=0;entryDy=0;" edge="1" parent="1" source="oYvmTv_5I0Rg5s-J_Htf-21" target="oYvmTv_5I0Rg5s-J_Htf-35">
          <mxGeometry relative="1" as="geometry" />
        </mxCell>
        <mxCell id="oYvmTv_5I0Rg5s-J_Htf-21" value="报新单(来自销售人员)" style="shape=note;whiteSpace=wrap;html=1;backgroundOutline=1;darkOpacity=0.05;fillColor=#ffe6cc;strokeColor=#d79b00;" vertex="1" parent="1">
          <mxGeometry x="540" y="360" width="140" height="60" as="geometry" />
        </mxCell>
        <mxCell id="oYvmTv_5I0Rg5s-J_Htf-22" value="个人中心" style="shape=note;whiteSpace=wrap;html=1;backgroundOutline=1;darkOpacity=0.05;fillColor=#ffe6cc;strokeColor=#d79b00;" vertex="1" parent="1">
          <mxGeometry x="540" y="993" width="140" height="60" as="geometry" />
        </mxCell>
        <mxCell id="oYvmTv_5I0Rg5s-J_Htf-24" style="edgeStyle=orthogonalEdgeStyle;rounded=0;orthogonalLoop=1;jettySize=auto;html=1;exitX=1;exitY=0.25;exitDx=0;exitDy=0;entryX=0;entryY=0.5;entryDx=0;entryDy=0;entryPerimeter=0;dashed=1;dashPattern=8 8;strokeColor=#3399FF;" edge="1" parent="1" source="oYvmTv_5I0Rg5s-J_Htf-18" target="oYvmTv_5I0Rg5s-J_Htf-21">
          <mxGeometry relative="1" as="geometry" />
        </mxCell>
        <mxCell id="oYvmTv_5I0Rg5s-J_Htf-25" style="edgeStyle=orthogonalEdgeStyle;rounded=0;orthogonalLoop=1;jettySize=auto;html=1;exitX=1;exitY=0.75;exitDx=0;exitDy=0;entryX=0;entryY=0.5;entryDx=0;entryDy=0;entryPerimeter=0;dashed=1;dashPattern=8 8;strokeColor=#3399FF;" edge="1" parent="1" source="oYvmTv_5I0Rg5s-J_Htf-18" target="oYvmTv_5I0Rg5s-J_Htf-22">
          <mxGeometry relative="1" as="geometry" />
        </mxCell>
        <mxCell id="oYvmTv_5I0Rg5s-J_Htf-33" style="edgeStyle=orthogonalEdgeStyle;rounded=0;orthogonalLoop=1;jettySize=auto;html=1;exitX=0.5;exitY=1;exitDx=0;exitDy=0;entryX=0.5;entryY=0;entryDx=0;entryDy=0;strokeColor=#7F00FF;" edge="1" parent="1" source="oYvmTv_5I0Rg5s-J_Htf-28" target="oYvmTv_5I0Rg5s-J_Htf-32">
          <mxGeometry relative="1" as="geometry" />
        </mxCell>
        <mxCell id="oYvmTv_5I0Rg5s-J_Htf-70" value="成交" style="edgeLabel;html=1;align=center;verticalAlign=middle;resizable=0;points=[];" vertex="1" connectable="0" parent="oYvmTv_5I0Rg5s-J_Htf-33">
          <mxGeometry x="-0.3143" y="3" relative="1" as="geometry">
            <mxPoint as="offset" />
          </mxGeometry>
        </mxCell>
        <mxCell id="oYvmTv_5I0Rg5s-J_Htf-28" value="是否成交" style="rhombus;whiteSpace=wrap;html=1;fillColor=#ffe6cc;strokeColor=#d79b00;" vertex="1" parent="1">
          <mxGeometry x="570" y="742" width="80" height="80" as="geometry" />
        </mxCell>
        <mxCell id="oYvmTv_5I0Rg5s-J_Htf-32" value="填写成交信息" style="rounded=0;whiteSpace=wrap;html=1;fillColor=#ffe6cc;strokeColor=#d79b00;" vertex="1" parent="1">
          <mxGeometry x="550" y="888" width="120" height="60" as="geometry" />
        </mxCell>
        <mxCell id="oYvmTv_5I0Rg5s-J_Htf-34" style="edgeStyle=orthogonalEdgeStyle;rounded=0;orthogonalLoop=1;jettySize=auto;html=1;exitX=0.5;exitY=1;exitDx=0;exitDy=0;entryX=0.5;entryY=0;entryDx=0;entryDy=0;entryPerimeter=0;" edge="1" parent="1" source="oYvmTv_5I0Rg5s-J_Htf-32" target="oYvmTv_5I0Rg5s-J_Htf-22">
          <mxGeometry relative="1" as="geometry" />
        </mxCell>
        <mxCell id="oYvmTv_5I0Rg5s-J_Htf-37" style="edgeStyle=orthogonalEdgeStyle;rounded=0;orthogonalLoop=1;jettySize=auto;html=1;entryX=0.5;entryY=0;entryDx=0;entryDy=0;" edge="1" parent="1" source="oYvmTv_5I0Rg5s-J_Htf-35" target="oYvmTv_5I0Rg5s-J_Htf-28">
          <mxGeometry relative="1" as="geometry" />
        </mxCell>
        <mxCell id="oYvmTv_5I0Rg5s-J_Htf-38" value="处理" style="edgeLabel;html=1;align=center;verticalAlign=middle;resizable=0;points=[];" vertex="1" connectable="0" parent="oYvmTv_5I0Rg5s-J_Htf-37">
          <mxGeometry x="-0.3333" y="-1" relative="1" as="geometry">
            <mxPoint as="offset" />
          </mxGeometry>
        </mxCell>
        <mxCell id="oYvmTv_5I0Rg5s-J_Htf-76" style="edgeStyle=orthogonalEdgeStyle;rounded=0;orthogonalLoop=1;jettySize=auto;html=1;exitX=1;exitY=0.5;exitDx=0;exitDy=0;strokeColor=#0000CC;strokeWidth=3;dashed=1;dashPattern=8 8;" edge="1" parent="1" source="oYvmTv_5I0Rg5s-J_Htf-35">
          <mxGeometry relative="1" as="geometry">
            <mxPoint x="1270" y="660" as="targetPoint" />
          </mxGeometry>
        </mxCell>
        <mxCell id="oYvmTv_5I0Rg5s-J_Htf-81" value="3、未及时处理" style="edgeLabel;html=1;align=center;verticalAlign=middle;resizable=0;points=[];" vertex="1" connectable="0" parent="oYvmTv_5I0Rg5s-J_Htf-76">
          <mxGeometry x="0.0975" y="-2" relative="1" as="geometry">
            <mxPoint as="offset" />
          </mxGeometry>
        </mxCell>
        <mxCell id="oYvmTv_5I0Rg5s-J_Htf-35" value="是否及时处理" style="rhombus;whiteSpace=wrap;html=1;fillColor=#ffe6cc;strokeColor=#d79b00;" vertex="1" parent="1">
          <mxGeometry x="570" y="620" width="80" height="80" as="geometry" />
        </mxCell>
        <mxCell id="oYvmTv_5I0Rg5s-J_Htf-40" value="用户名" style="edgeLabel;html=1;align=center;verticalAlign=middle;resizable=0;points=[];" vertex="1" connectable="0" parent="1">
          <mxGeometry x="1711" y="380" as="geometry" />
        </mxCell>
        <mxCell id="oYvmTv_5I0Rg5s-J_Htf-77" style="edgeStyle=orthogonalEdgeStyle;rounded=0;orthogonalLoop=1;jettySize=auto;html=1;entryX=1;entryY=0.5;entryDx=0;entryDy=0;" edge="1" parent="1" source="oYvmTv_5I0Rg5s-J_Htf-42" target="oYvmTv_5I0Rg5s-J_Htf-74">
          <mxGeometry relative="1" as="geometry" />
        </mxCell>
        <mxCell id="oYvmTv_5I0Rg5s-J_Htf-42" value="保保小二" style="swimlane;whiteSpace=wrap;html=1;startSize=23;fillColor=#d5e8d4;strokeColor=#82b366;" vertex="1" parent="1">
          <mxGeometry x="1551" y="330" width="80" height="120" as="geometry" />
        </mxCell>
        <mxCell id="oYvmTv_5I0Rg5s-J_Htf-85" value="经理小程序" style="text;html=1;align=center;verticalAlign=middle;resizable=0;points=[];autosize=1;strokeColor=none;fillColor=none;" vertex="1" parent="oYvmTv_5I0Rg5s-J_Htf-42">
          <mxGeometry y="50" width="80" height="30" as="geometry" />
        </mxCell>
        <mxCell id="oYvmTv_5I0Rg5s-J_Htf-49" style="edgeStyle=orthogonalEdgeStyle;rounded=0;orthogonalLoop=1;jettySize=auto;html=1;exitX=0;exitY=0.3333333333333333;exitDx=0;exitDy=0;exitPerimeter=0;entryX=1;entryY=0.5;entryDx=0;entryDy=0;" edge="1" parent="1" source="oYvmTv_5I0Rg5s-J_Htf-46" target="oYvmTv_5I0Rg5s-J_Htf-42">
          <mxGeometry relative="1" as="geometry" />
        </mxCell>
        <mxCell id="oYvmTv_5I0Rg5s-J_Htf-46" value="销售经理" style="shape=umlActor;verticalLabelPosition=bottom;verticalAlign=top;html=1;outlineConnect=0;" vertex="1" parent="1">
          <mxGeometry x="1781" y="370" width="30" height="60" as="geometry" />
        </mxCell>
        <mxCell id="oYvmTv_5I0Rg5s-J_Htf-53" value="当月配额" style="shape=note;whiteSpace=wrap;html=1;backgroundOutline=1;darkOpacity=0.05;fillColor=#d5e8d4;strokeColor=#82b366;" vertex="1" parent="1">
          <mxGeometry x="1271" y="249" width="140" height="60" as="geometry" />
        </mxCell>
        <mxCell id="oYvmTv_5I0Rg5s-J_Htf-54" value="特殊订单&lt;div&gt;报单时指定保险公司的&lt;/div&gt;" style="shape=note;whiteSpace=wrap;html=1;backgroundOutline=1;darkOpacity=0.05;fillColor=#d5e8d4;strokeColor=#82b366;" vertex="1" parent="1">
          <mxGeometry x="1271" y="360" width="140" height="60" as="geometry" />
        </mxCell>
        <mxCell id="oYvmTv_5I0Rg5s-J_Htf-55" value="数据统计" style="shape=note;whiteSpace=wrap;html=1;backgroundOutline=1;darkOpacity=0.05;fillColor=#d5e8d4;strokeColor=#82b366;" vertex="1" parent="1">
          <mxGeometry x="1271" y="471" width="140" height="60" as="geometry" />
        </mxCell>
        <mxCell id="oYvmTv_5I0Rg5s-J_Htf-56" style="edgeStyle=orthogonalEdgeStyle;rounded=0;orthogonalLoop=1;jettySize=auto;html=1;exitX=0;exitY=0.5;exitDx=0;exitDy=0;entryX=0;entryY=0;entryDx=140;entryDy=30;entryPerimeter=0;" edge="1" parent="1" source="oYvmTv_5I0Rg5s-J_Htf-42" target="oYvmTv_5I0Rg5s-J_Htf-53">
          <mxGeometry relative="1" as="geometry" />
        </mxCell>
        <mxCell id="oYvmTv_5I0Rg5s-J_Htf-57" style="edgeStyle=orthogonalEdgeStyle;rounded=0;orthogonalLoop=1;jettySize=auto;html=1;exitX=0;exitY=0.5;exitDx=0;exitDy=0;entryX=0;entryY=0;entryDx=140;entryDy=30;entryPerimeter=0;" edge="1" parent="1" source="oYvmTv_5I0Rg5s-J_Htf-42" target="oYvmTv_5I0Rg5s-J_Htf-54">
          <mxGeometry relative="1" as="geometry" />
        </mxCell>
        <mxCell id="oYvmTv_5I0Rg5s-J_Htf-58" style="edgeStyle=orthogonalEdgeStyle;rounded=0;orthogonalLoop=1;jettySize=auto;html=1;exitX=0;exitY=0.5;exitDx=0;exitDy=0;entryX=0;entryY=0;entryDx=140;entryDy=30;entryPerimeter=0;" edge="1" parent="1" source="oYvmTv_5I0Rg5s-J_Htf-42" target="oYvmTv_5I0Rg5s-J_Htf-55">
          <mxGeometry relative="1" as="geometry" />
        </mxCell>
        <mxCell id="oYvmTv_5I0Rg5s-J_Htf-59" style="edgeStyle=orthogonalEdgeStyle;rounded=0;orthogonalLoop=1;jettySize=auto;html=1;exitX=0;exitY=0;exitDx=55;exitDy=0;exitPerimeter=0;entryX=0.5;entryY=0;entryDx=0;entryDy=0;entryPerimeter=0;strokeColor=#FF0000;strokeWidth=3;" edge="1" parent="1" source="oYvmTv_5I0Rg5s-J_Htf-53" target="oYvmTv_5I0Rg5s-J_Htf-5">
          <mxGeometry relative="1" as="geometry">
            <Array as="points">
              <mxPoint x="1326" y="-80" />
              <mxPoint x="610" y="-80" />
            </Array>
          </mxGeometry>
        </mxCell>
        <mxCell id="oYvmTv_5I0Rg5s-J_Htf-60" value="1、设置每家保险公司能接几单" style="edgeLabel;html=1;align=center;verticalAlign=middle;resizable=0;points=[];" vertex="1" connectable="0" parent="oYvmTv_5I0Rg5s-J_Htf-59">
          <mxGeometry x="0.2324" y="1" relative="1" as="geometry">
            <mxPoint as="offset" />
          </mxGeometry>
        </mxCell>
        <mxCell id="oYvmTv_5I0Rg5s-J_Htf-61" value="是否&lt;div&gt;指定保险公司&lt;/div&gt;" style="rhombus;whiteSpace=wrap;html=1;" vertex="1" parent="1">
          <mxGeometry x="920" y="90" width="80" height="80" as="geometry" />
        </mxCell>
        <mxCell id="oYvmTv_5I0Rg5s-J_Htf-64" style="edgeStyle=orthogonalEdgeStyle;rounded=0;orthogonalLoop=1;jettySize=auto;html=1;exitX=0.5;exitY=1;exitDx=0;exitDy=0;entryX=0;entryY=0;entryDx=140;entryDy=30;entryPerimeter=0;strokeColor=#009900;strokeWidth=2;" edge="1" parent="1" source="oYvmTv_5I0Rg5s-J_Htf-61" target="oYvmTv_5I0Rg5s-J_Htf-21">
          <mxGeometry relative="1" as="geometry" />
        </mxCell>
        <mxCell id="oYvmTv_5I0Rg5s-J_Htf-65" value="创建保单时指定保险公司" style="edgeLabel;html=1;align=center;verticalAlign=middle;resizable=0;points=[];" vertex="1" connectable="0" parent="oYvmTv_5I0Rg5s-J_Htf-64">
          <mxGeometry x="-0.484" relative="1" as="geometry">
            <mxPoint as="offset" />
          </mxGeometry>
        </mxCell>
        <mxCell id="oYvmTv_5I0Rg5s-J_Htf-79" value="2-1" style="edgeLabel;html=1;align=center;verticalAlign=middle;resizable=0;points=[];" vertex="1" connectable="0" parent="oYvmTv_5I0Rg5s-J_Htf-64">
          <mxGeometry x="-0.748" y="2" relative="1" as="geometry">
            <mxPoint as="offset" />
          </mxGeometry>
        </mxCell>
        <mxCell id="oYvmTv_5I0Rg5s-J_Htf-66" style="edgeStyle=orthogonalEdgeStyle;rounded=0;orthogonalLoop=1;jettySize=auto;html=1;exitX=1;exitY=0.5;exitDx=0;exitDy=0;entryX=0.5;entryY=0;entryDx=0;entryDy=0;entryPerimeter=0;strokeColor=#FFCCE6;strokeWidth=2;fillColor=#f8cecc;" edge="1" parent="1" source="oYvmTv_5I0Rg5s-J_Htf-61" target="oYvmTv_5I0Rg5s-J_Htf-54">
          <mxGeometry relative="1" as="geometry">
            <Array as="points">
              <mxPoint x="1136" y="130" />
              <mxPoint x="1136" y="320" />
              <mxPoint x="1341" y="320" />
            </Array>
          </mxGeometry>
        </mxCell>
        <mxCell id="oYvmTv_5I0Rg5s-J_Htf-67" value="创建保单时无对应保险公司&lt;div&gt;手输保险公司&lt;/div&gt;" style="edgeLabel;html=1;align=center;verticalAlign=middle;resizable=0;points=[];" vertex="1" connectable="0" parent="oYvmTv_5I0Rg5s-J_Htf-66">
          <mxGeometry x="-0.0716" y="4" relative="1" as="geometry">
            <mxPoint y="63" as="offset" />
          </mxGeometry>
        </mxCell>
        <mxCell id="oYvmTv_5I0Rg5s-J_Htf-80" value="2-2" style="edgeLabel;html=1;align=center;verticalAlign=middle;resizable=0;points=[];" vertex="1" connectable="0" parent="oYvmTv_5I0Rg5s-J_Htf-66">
          <mxGeometry x="-0.303" y="2" relative="1" as="geometry">
            <mxPoint as="offset" />
          </mxGeometry>
        </mxCell>
        <mxCell id="oYvmTv_5I0Rg5s-J_Htf-68" style="edgeStyle=orthogonalEdgeStyle;rounded=0;orthogonalLoop=1;jettySize=auto;html=1;exitX=1;exitY=0.5;exitDx=0;exitDy=0;entryX=0;entryY=0;entryDx=140;entryDy=30;entryPerimeter=0;strokeColor=#7F00FF;" edge="1" parent="1" source="oYvmTv_5I0Rg5s-J_Htf-28" target="oYvmTv_5I0Rg5s-J_Htf-9">
          <mxGeometry relative="1" as="geometry">
            <Array as="points">
              <mxPoint x="830" y="782" />
              <mxPoint x="830" y="120" />
            </Array>
          </mxGeometry>
        </mxCell>
        <mxCell id="oYvmTv_5I0Rg5s-J_Htf-69" value="4、战败" style="edgeLabel;html=1;align=center;verticalAlign=middle;resizable=0;points=[];" vertex="1" connectable="0" parent="oYvmTv_5I0Rg5s-J_Htf-68">
          <mxGeometry x="-0.1634" y="-1" relative="1" as="geometry">
            <mxPoint as="offset" />
          </mxGeometry>
        </mxCell>
        <mxCell id="oYvmTv_5I0Rg5s-J_Htf-71" style="edgeStyle=orthogonalEdgeStyle;rounded=0;orthogonalLoop=1;jettySize=auto;html=1;exitX=0.5;exitY=0;exitDx=0;exitDy=0;exitPerimeter=0;entryX=0.5;entryY=1;entryDx=0;entryDy=0;entryPerimeter=0;strokeColor=#7F00FF;" edge="1" parent="1" source="oYvmTv_5I0Rg5s-J_Htf-9" target="oYvmTv_5I0Rg5s-J_Htf-5">
          <mxGeometry relative="1" as="geometry" />
        </mxCell>
        <mxCell id="oYvmTv_5I0Rg5s-J_Htf-72" value="4、重新下单" style="edgeLabel;html=1;align=center;verticalAlign=middle;resizable=0;points=[];" vertex="1" connectable="0" parent="oYvmTv_5I0Rg5s-J_Htf-71">
          <mxGeometry x="-0.0333" relative="1" as="geometry">
            <mxPoint as="offset" />
          </mxGeometry>
        </mxCell>
        <mxCell id="oYvmTv_5I0Rg5s-J_Htf-74" value="待接单池" style="whiteSpace=wrap;html=1;fillColor=#d5e8d4;strokeColor=#82b366;" vertex="1" parent="1">
          <mxGeometry x="1271" y="630" width="139" height="60" as="geometry" />
        </mxCell>
        <mxCell id="oYvmTv_5I0Rg5s-J_Htf-78" style="edgeStyle=orthogonalEdgeStyle;rounded=0;orthogonalLoop=1;jettySize=auto;html=1;exitX=0;exitY=0.5;exitDx=0;exitDy=0;exitPerimeter=0;entryX=0;entryY=0;entryDx=140;entryDy=30;entryPerimeter=0;strokeWidth=2;strokeColor=#FFCCE6;" edge="1" parent="1" source="oYvmTv_5I0Rg5s-J_Htf-54" target="oYvmTv_5I0Rg5s-J_Htf-21">
          <mxGeometry relative="1" as="geometry" />
        </mxCell>
        <mxCell id="oYvmTv_5I0Rg5s-J_Htf-82" style="edgeStyle=orthogonalEdgeStyle;rounded=0;orthogonalLoop=1;jettySize=auto;html=1;exitX=0;exitY=0.25;exitDx=0;exitDy=0;entryX=0;entryY=0;entryDx=140;entryDy=45;entryPerimeter=0;strokeColor=#0000CC;strokeWidth=3;dashed=1;dashPattern=8 8;" edge="1" parent="1" source="oYvmTv_5I0Rg5s-J_Htf-74" target="oYvmTv_5I0Rg5s-J_Htf-5">
          <mxGeometry relative="1" as="geometry">
            <Array as="points">
              <mxPoint x="900" y="645" />
              <mxPoint x="900" y="15" />
            </Array>
          </mxGeometry>
        </mxCell>
        <mxCell id="oYvmTv_5I0Rg5s-J_Htf-83" value="3、超时订单重新下单" style="edgeLabel;html=1;align=center;verticalAlign=middle;resizable=0;points=[];" vertex="1" connectable="0" parent="oYvmTv_5I0Rg5s-J_Htf-82">
          <mxGeometry x="0.1089" y="-3" relative="1" as="geometry">
            <mxPoint y="181" as="offset" />
          </mxGeometry>
        </mxCell>
        <mxCell id="oYvmTv_5I0Rg5s-J_Htf-84" value="销售小程序" style="text;html=1;align=center;verticalAlign=middle;resizable=0;points=[];autosize=1;strokeColor=none;fillColor=none;" vertex="1" parent="1">
          <mxGeometry x="270" y="118" width="80" height="30" as="geometry" />
        </mxCell>
        <mxCell id="oYvmTv_5I0Rg5s-J_Htf-86" value="保险小程序" style="text;html=1;align=center;verticalAlign=middle;resizable=0;points=[];autosize=1;strokeColor=none;fillColor=none;" vertex="1" parent="1">
          <mxGeometry x="270" y="458" width="80" height="30" as="geometry" />
        </mxCell>
        <mxCell id="oYvmTv_5I0Rg5s-J_Htf-87" value="保保小二" style="swimlane;whiteSpace=wrap;html=1;startSize=23;fillColor=#ffe6cc;strokeColor=#d79b00;" vertex="1" parent="1">
          <mxGeometry x="270" y="550" width="80" height="120" as="geometry" />
        </mxCell>
        <mxCell id="oYvmTv_5I0Rg5s-J_Htf-88" value="电脑PC端" style="text;html=1;align=center;verticalAlign=middle;resizable=0;points=[];autosize=1;strokeColor=none;fillColor=none;" vertex="1" parent="oYvmTv_5I0Rg5s-J_Htf-87">
          <mxGeometry y="50" width="80" height="30" as="geometry" />
        </mxCell>
      </root>
    </mxGraphModel>
  </diagram>
</mxfile>
